<?xml version="1.0" encoding="iso-8859-1"?>
<!-- Generator: Adobe Illustrator 18.0.0, SVG Export Plug-In . SVG Version: 6.00 Build 0)  -->
<!DOCTYPE svg PUBLIC "-//W3C//DTD SVG 1.1//EN" "http://www.w3.org/Graphics/SVG/1.1/DTD/svg11.dtd">
<svg version="1.1" id="Capa_1" xmlns="http://www.w3.org/2000/svg" xmlns:xlink="http://www.w3.org/1999/xlink" x="0px" y="0px"
	 viewBox="0 0 248.194 248.194" style="fill: #416699; enable-background:new 0 0 248.194 248.194;" xml:space="preserve">
<path d="M124.096,189.528c27.055,0,53.028-3.381,75.684-9.679c-17.117,23.198-44.641,38.249-75.683,38.249
	c-31.038,0-58.558-15.046-75.676-38.239C71.074,186.153,97.047,189.528,124.096,189.528z M248.194,124.097
	c0,10.185-6.794,24.72-39.158,36.122c-22.803,8.034-52.968,12.459-84.939,12.459s-62.137-4.425-84.938-12.459
	C6.794,148.817,0,134.282,0,124.097c0-9.949,6.497-24.048,36.967-35.324c13.964-34.408,47.71-58.676,87.13-58.676
	s73.166,24.268,87.13,58.676C241.697,100.049,248.194,114.148,248.194,124.097z M31.591,140.83
	c-0.977-5.43-1.494-11.021-1.494-16.733c0-5.709,0.51-11.3,1.485-16.728C20.797,112.845,15,118.857,15,124.097
	C15,129.338,20.8,135.353,31.591,140.83z M115.715,55.403c-1.104-3.991-5.23-6.335-9.228-5.229
	c-24.473,6.769-44.543,24.974-53.688,48.699c-1.49,3.864,0.436,8.206,4.301,9.695c0.887,0.342,1.799,0.504,2.695,0.504
	c3.012,0,5.853-1.826,7-4.805c7.444-19.312,23.777-34.129,43.69-39.637C114.478,63.526,116.819,59.395,115.715,55.403z
	 M233.194,124.097c0-5.24-5.797-11.252-16.583-16.728c0.975,5.429,1.485,11.019,1.485,16.728c0,5.712-0.516,11.302-1.494,16.733
	C227.394,135.353,233.194,129.338,233.194,124.097z"/>
<g>
</g>
<g>
</g>
<g>
</g>
<g>
</g>
<g>
</g>
<g>
</g>
<g>
</g>
<g>
</g>
<g>
</g>
<g>
</g>
<g>
</g>
<g>
</g>
<g>
</g>
<g>
</g>
<g>
</g>
</svg>
